# xmcd
#
# Track frame offsets:
#   150
#   17039
#   39700
#   73968
#   93686
#   107331
#   125817
#   146140
#   161948
#
# Disc length: 2345 seconds
#
# Revision: 0
# Processed by: cddbd v1.5.2PL0 Copyright (c) Steve Scherf et al.
# Submitted via: GXTranscoder 2.0.1939
#
DISCID=89092709
DTITLE=Peter Green - In the skies
DYEAR=1990
DGENRE=Easy Listening
TTITLE0=In the Skies
TTITLE1=Slabo Day
TTITLE2=A Fool no more
TTITLE3=Tribal Dance
TTITLE4=Seven Stars
TTITLE5=Funky Chunk
TTITLE6=Just for You
TTITLE7=Proud Pinto
TTITLE8=Apostle
EXTD=
EXTT0=
EXTT1=
EXTT2=
EXTT3=
EXTT4=
EXTT5=
EXTT6=
EXTT7=
EXTT8=
PLAYORDER=
